<?xml version="1.0" encoding="UTF-8"?>
<svg width="550px" height="794px" viewBox="0 0 550 794" version="1.1" xmlns="http://www.w3.org/2000/svg" xmlns:xlink="http://www.w3.org/1999/xlink">
    <title>Group 28</title>
    <g id="Page-1" stroke="none" stroke-width="1" fill="none" fill-rule="evenodd">
        <g id="Group-28" fill="#F16424">
            <path d="M452.582317,401.060577 C451.160317,402.406577 449.706317,403.719577 448.322317,405.102577 C404.661317,448.763577 360.957317,492.382577 317.413317,536.159577 C311.983317,541.619577 305.922317,544.231577 298.334317,544.172577 C282.696317,544.048577 267.054317,544.052577 251.415317,544.171577 C243.846317,544.228577 237.708317,541.724577 232.280317,536.258577 C188.539317,492.208577 144.654317,448.300577 100.805317,404.356577 C99.654317,403.204577 98.407317,402.147577 96.312317,400.228577 C96.114317,403.230577 95.866317,405.247577 95.866317,407.264577 C95.846317,462.203577 95.855317,517.141577 95.840317,572.080577 C95.840317,574.572577 95.852317,577.090577 95.526317,579.553577 C94.790317,585.109577 91.388317,588.096577 85.815317,588.102577 C60.359317,588.135577 34.903317,588.145577 9.44631697,588.095577 C2.56531697,588.080577 0.0723169662,585.547577 0.0713169662,578.823577 C0.0624387455,476.771577 0.0563169662,374.718577 0.0753169662,272.666577 C0.0783169662,260.520577 7.34031697,252.990577 19.557317,252.847577 C35.526317,252.660577 51.504317,252.611577 67.471317,252.905577 C79.540317,253.128577 89.880317,257.400577 98.658317,266.228577 C153.575317,321.463577 208.695317,376.496577 263.753317,431.591577 C272.479317,440.324577 277.223317,440.311577 285.974317,431.560577 C341.165317,376.362577 396.411317,321.221577 451.483317,265.905577 C459.865317,257.485577 469.798317,253.250577 481.302317,252.969577 C497.764317,252.568577 514.244317,252.662577 530.711317,252.871577 C542.508317,253.020577 549.725317,260.707577 549.727317,272.639577 C549.747317,374.692577 549.740579,476.744577 549.731317,578.797577 C549.730317,585.530577 547.241317,588.077577 540.371317,588.092577 C514.914317,588.146577 489.458317,588.136577 464.002317,588.101577 C458.444317,588.094577 454.991317,585.029577 454.304317,579.521577 C454.018317,577.221577 454.059317,574.871577 454.058317,572.543577 C454.046317,517.604577 454.048317,462.665577 454.048317,407.727577 L454.048317,401.466577 C453.560317,401.331577 453.071317,401.196577 452.582317,401.060577" id="Fill-1"></path>
            <path d="M308.031117,39.7031768 C306.496117,76.2541768 304.961117,112.804177 303.427117,149.355177 C303.044117,158.494177 302.765117,167.638177 302.263117,176.769177 C301.369117,193.035177 289.884117,204.778177 274.989117,204.823312 C260.044117,204.869177 248.276117,193.153177 247.545117,176.997177 C246.117117,145.435177 244.915117,113.863177 243.630117,82.2941768 C242.981117,66.3451768 242.028117,50.3981768 241.811117,34.4431768 C241.606117,19.2451768 252.138117,5.26817682 265.919117,1.25817682 C283.987117,-4.00082318 302.994117,7.74417682 307.005117,26.8351768 C307.885117,31.0261768 307.989117,35.3811768 308.450117,39.6601768 C308.310117,39.6751768 308.171117,39.6891768 308.031117,39.7031768" id="Fill-3"></path>
            <path d="M433.883117,68.3818768 C432.294117,73.7338768 431.384117,79.4088768 429.010117,84.3848768 C409.056117,126.211877 388.876117,167.930877 368.661117,209.631877 C364.282117,218.664877 357.247117,224.886877 347.122117,226.397877 C325.168117,229.672877 310.059117,209.497877 318.179117,187.640877 C325.347117,168.345877 332.995117,149.228877 340.422117,130.029877 C349.526117,106.497877 358.623117,82.9628768 367.715117,59.4248768 C372.516117,46.9928768 380.825117,38.1028768 394.103117,35.2568768 C415.062117,30.7648768 432.972117,46.1428768 433.883117,68.3818768" id="Fill-5"></path>
            <path d="M53.894317,111.618677 C68.133317,111.643677 77.389317,115.778677 84.447317,124.028677 C114.955317,159.689677 145.355317,195.444677 175.669317,231.271677 C182.457317,239.293677 184.557317,248.797677 181.541317,258.888677 C175.719317,278.366677 151.362317,283.811677 135.789317,268.981677 C123.259317,257.048677 111.228317,244.589677 98.982317,232.355677 C78.142317,211.535677 57.242317,190.774677 36.500317,169.855677 C27.680317,160.960677 23.567317,150.282677 25.878317,137.618677 C28.715317,122.070677 41.273317,111.652677 53.894317,111.618677" id="Fill-7"></path>
            <path d="M367.175117,249.001477 C367.141117,242.730477 369.746117,236.347477 374.412117,230.856477 C404.688117,195.222477 434.869117,159.504477 465.397117,124.087477 C478.704117,108.648477 501.196117,107.265477 514.791117,120.284477 C528.314117,133.234477 527.936117,155.146477 513.695117,169.494477 C492.594117,190.754477 471.339117,211.862477 450.147117,233.033477 C438.374117,244.794477 426.689117,256.646477 414.790117,268.278477 C407.341117,275.561477 398.388117,278.978477 387.925117,276.686477 C374.764117,273.804477 366.858117,263.499477 367.175117,249.001477" id="Fill-9"></path>
            <path d="M116.896317,67.9379768 C116.884317,51.7149768 127.510317,37.8749768 142.083317,35.1319768 C158.638317,32.0169768 174.675317,41.0139768 181.182317,57.2779768 C185.991317,69.2989768 190.562317,81.4159768 195.237317,93.4899768 C207.104317,124.140977 218.935317,154.805977 230.859317,185.434977 C233.648317,192.597977 234.877317,199.844977 232.701317,207.333977 C229.833317,217.200977 223.550317,224.069977 213.423317,226.219977 C202.494317,228.539977 192.992317,225.132977 185.709317,216.545977 C183.485317,213.922977 181.728317,210.805977 180.215317,207.690977 C160.777317,167.646977 141.325317,127.607977 122.150317,87.4369768 C119.276317,81.4149768 117.798317,74.7259768 115.675317,68.3449768 C116.082317,68.2089768 116.489317,68.0739768 116.896317,67.9379768" id="Fill-11"></path>
            <path d="M28.860117,744.139177 C28.739117,745.843177 28.517117,747.546177 28.513117,749.249177 C28.483117,761.563177 28.339117,773.878177 28.579117,786.187177 C28.667117,790.669177 27.324117,792.592177 22.655117,792.378177 C16.681117,792.104177 10.683117,792.220177 4.69911697,792.337177 C1.41211697,792.403177 -0.0148830338,791.356177 -2.13162821e-14,787.753177 C0.117116966,757.803177 0.0841169662,727.852177 0.0501169662,697.902177 C0.0461169662,693.512177 2.19011697,691.493177 6.44911697,691.484177 C11.105117,691.472177 15.777117,691.712177 20.413117,691.409177 C25.589117,691.070177 28.757117,693.238177 31.119117,697.751177 C39.209117,713.209177 47.513117,728.554177 55.764117,743.928177 C56.686117,745.648177 57.785117,747.273177 59.324117,749.796177 C60.858117,747.684177 62.123117,746.298177 62.986117,744.696177 C71.340117,729.189177 79.715117,713.693177 87.875117,698.083177 C90.302117,693.441177 93.460117,690.996177 98.892117,691.404177 C103.358117,691.739177 107.868117,691.535177 112.357117,691.460177 C116.885117,691.386177 119.292117,693.636177 119.301117,698.049177 C119.361117,728.165177 119.313117,758.283177 119.368131,788.399177 C119.373117,791.253177 118.045117,792.278177 115.446117,792.277177 C108.629117,792.272177 101.810117,792.220177 94.993117,792.306177 C91.182117,792.354177 90.829117,790.050177 90.845117,787.053177 C90.915117,774.574177 90.895117,762.094177 90.845117,749.616177 C90.838117,747.757177 90.494117,745.901177 90.305117,744.043177 C89.864117,743.934177 89.424117,743.824177 88.983117,743.713177 C87.928117,745.265177 86.745117,746.745177 85.841117,748.380177 C81.418117,756.378177 76.983117,764.372177 72.738117,772.465177 C71.091117,775.607177 68.978117,777.033177 65.301117,777.071177 C49.232117,777.238177 49.231117,777.335177 41.459117,763.163177 C38.661117,758.063177 35.908117,752.939177 33.060117,747.868177 C32.237117,746.403177 31.154117,745.084177 30.190117,743.700177 L28.860117,744.139177 Z" id="Fill-13"></path>
            <path d="M481.918317,733.334477 C482.999317,733.260477 484.788317,731.648477 484.865317,730.638477 C485.617317,720.813477 478.778317,712.788477 469.437317,712.184477 C460.232317,711.588477 452.566317,718.895477 451.869317,728.727477 C451.663317,731.635477 452.492317,733.125477 455.583317,733.073477 C459.889317,733.002477 477.465317,733.642477 481.918317,733.334477 M452.467317,750.802477 C450.585317,761.719477 457.539317,771.402477 470.625317,771.177477 C480.592317,771.004477 490.564317,770.433477 500.505317,769.667477 C507.373317,769.138477 507.871317,769.316477 507.891317,776.294477 C507.931317,789.773477 507.992317,790.356477 494.564317,791.779477 C482.747317,793.031477 470.575317,794.328477 458.908317,792.852477 C439.104317,790.344477 427.807317,778.952477 425.424317,758.933477 C423.936317,746.423477 424.249317,733.206477 426.596317,720.846477 C430.120317,702.290477 444.812317,691.173477 463.630317,690.487477 C470.193317,690.248477 477.052317,690.517477 483.353317,692.167477 C499.789317,696.475477 510.731317,711.223477 511.743317,729.178477 C512.033317,734.325477 511.753317,739.506477 512.048317,744.653477 C512.300317,749.034477 510.419317,750.556477 506.203317,750.525477 C490.562317,750.413477 474.920317,750.473477 459.278317,750.502477 C456.980317,750.507477 454.681317,750.700477 452.467317,750.802477" id="Fill-15"></path>
            <path d="M190.392917,741.838377 C189.855917,736.383377 189.838917,730.845377 188.666917,725.563377 C186.935917,717.760377 181.688917,713.955377 174.108917,713.901377 C166.106917,713.845377 159.811917,717.474377 158.993917,725.349377 C157.843917,736.424377 157.856917,747.805377 159.040917,758.875377 C159.883917,766.754377 166.318917,770.526377 174.128917,770.438377 C181.570917,770.354377 186.943917,766.415377 188.646917,758.641377 C189.839917,753.193377 189.848917,747.487377 190.392917,741.838377 M218.084917,744.455377 C217.624917,748.982377 217.494917,755.861377 216.143917,762.491377 C212.415917,780.789377 198.417917,792.799377 179.727917,793.726377 C173.315917,794.044377 166.655917,793.858377 160.426917,792.471377 C145.759917,789.207377 135.768917,779.989377 132.049917,765.373377 C128.191917,750.214377 128.151917,734.631377 131.888917,719.457377 C136.202917,701.944377 149.974917,691.155377 168.011917,690.516377 C174.913917,690.272377 182.094917,690.448377 188.744917,692.080377 C205.056917,696.081377 215.906917,710.003377 217.223917,727.204377 C217.604917,732.178377 217.729917,737.172377 218.084917,744.455377" id="Fill-17"></path>
            <path d="M232.515417,691.471177 C234.678417,691.470177 236.841417,691.469177 239.003417,691.471177 C246.416417,691.478177 246.440417,691.508177 248.068417,698.938177 C252.756417,720.340177 257.406417,741.751177 262.230417,763.123177 C262.651417,764.987177 264.243417,766.585177 265.290417,768.307177 C266.518417,766.584177 268.432417,765.019177 268.868417,763.115177 C273.903417,741.112177 278.783417,719.073177 283.519417,697.004177 C284.351417,693.128177 285.863417,691.200177 290.118417,691.399177 C296.260417,691.686177 302.429417,691.603177 308.579417,691.428177 C312.463417,691.318177 313.828417,692.885177 312.804417,696.555177 C305.266417,723.577177 297.903417,750.651177 290.070417,777.587177 C286.628417,789.420177 278.811417,794.034177 264.761417,793.944177 C251.825417,793.861177 244.133417,788.785177 240.765417,777.110177 C234.875417,756.699177 229.399417,736.168177 223.752417,715.688177 C222.076417,709.608177 220.378417,703.533177 218.745417,697.441177 C217.298417,692.042177 217.738417,691.518177 223.532417,691.475177 C226.526417,691.452177 229.520417,691.471177 232.515417,691.471177" id="Fill-19"></path>
            <path d="M392.977317,740.636177 C392.979317,748.623177 392.925317,756.612177 392.998317,764.598177 C393.049317,770.305177 394.514317,772.242177 400.114317,772.787177 C405.390317,773.301177 410.736317,773.227177 416.050317,773.181177 C419.188317,773.154177 420.739317,774.366177 420.652317,777.539177 C420.639317,778.037177 420.662317,778.537177 420.673317,779.036177 C420.949317,791.928177 420.987317,792.387177 408.477317,793.427177 C400.435317,794.096177 392.163317,793.882177 384.168317,792.788177 C372.761317,791.230177 366.012317,783.663177 365.566317,772.123177 C364.956317,756.338177 365.073317,740.522177 364.989317,724.719177 C364.910317,709.909177 365.113317,695.097177 364.897317,680.289177 C364.825317,675.323177 365.966317,672.537177 371.585317,672.179177 C376.849317,671.842177 382.043317,670.442177 387.273317,669.537177 C391.211317,668.857177 393.280317,670.143177 393.024317,674.546177 C392.783317,678.693177 393.167317,682.875177 392.921317,687.020177 C392.708317,690.608177 394.182317,691.639177 397.571317,691.525177 C403.552317,691.323177 409.547317,691.594177 415.530317,691.431177 C419.287317,691.328177 421.132317,692.646177 420.930317,696.615177 C420.751317,700.100177 420.770317,703.607177 420.925317,707.094177 C421.090317,710.815177 419.362317,712.110177 415.814317,712.025177 C409.997317,711.886177 404.154317,712.283177 398.359317,711.900177 C393.731317,711.593177 392.735317,713.480177 392.893317,717.675177 C393.182317,725.319177 392.975317,732.982177 392.977317,740.636177" id="Fill-21"></path>
            <path d="M549.738517,724.683077 C549.738517,745.162077 549.598517,765.643077 549.840517,786.120077 C549.898517,791.084077 548.068517,792.595077 543.433517,792.371077 C538.120517,792.116077 532.784517,792.220077 527.462517,792.332077 C523.792517,792.411077 521.993517,791.144077 522.001517,787.140077 C522.080517,745.515077 522.082517,703.890077 521.999483,662.266077 C521.990517,658.252077 523.783517,657.000077 527.447517,657.071077 C533.102517,657.180077 538.765517,657.228077 544.418517,657.054077 C548.564517,656.926077 549.838517,658.696077 549.808517,662.746077 C549.655517,683.390077 549.737517,704.037077 549.738517,724.683077" id="Fill-23"></path>
            <path d="M324.519317,742.198677 C324.518317,727.220677 324.627317,712.242677 324.448317,697.265677 C324.397317,693.010677 325.707317,691.158677 330.155317,691.407677 C335.129317,691.686677 340.131317,691.465677 345.121317,691.472677 C352.116317,691.482677 352.163317,691.506677 352.166317,698.344677 C352.178317,725.137677 352.172317,751.930677 352.171317,778.724677 C352.171317,781.720677 352.067317,784.719677 352.184317,787.710677 C352.307317,790.870677 350.922317,792.313677 347.776317,792.293677 C341.623317,792.254677 335.468317,792.221677 329.315317,792.321677 C325.647317,792.381677 324.435317,790.713677 324.466317,787.132677 C324.596317,772.155677 324.520317,757.177677 324.519317,742.198677" id="Fill-26"></path>
        </g>
    </g>
</svg>