<svg width="60" height="60" viewBox="0 0 60 60" fill="none" xmlns="http://www.w3.org/2000/svg">
<g clip-path="url(#clip0_1016_1277)">
<path d="M19.25 9.75C20.0578 9.88926 20.5059 10.083 21 10.75C21 11.08 21 11.41 21 11.75C20.7525 11.75 20.505 11.75 20.25 11.75C20.25 12.245 20.25 12.74 20.25 13.25C20.4707 13.2448 20.6913 13.2395 20.9187 13.2341C21.7411 13.217 22.5632 13.2045 23.3857 13.1951C23.741 13.1901 24.0962 13.1832 24.4514 13.1746C24.9634 13.1624 25.4752 13.1567 25.9873 13.1523C26.295 13.1471 26.6027 13.1419 26.9197 13.1365C27.9127 13.2722 28.3189 13.5227 29 14.25C29.1649 14.7766 29.1649 14.7766 29.1768 15.332C29.184 15.5318 29.1913 15.7316 29.1988 15.9375C29.2002 16.1438 29.2017 16.35 29.2032 16.5625C29.2094 16.7726 29.2157 16.9827 29.2222 17.1992C29.2369 17.716 29.2442 18.233 29.25 18.75C29.5846 18.4749 29.5846 18.4749 29.9258 18.1943C30.2213 17.9575 30.5168 17.7209 30.8125 17.4844C30.9592 17.363 31.1058 17.2417 31.2569 17.1167C32.3607 16.2424 32.3607 16.2424 32.9776 16.2762C33.6888 16.5809 34.1168 17.015 34.667 17.5586C34.8893 17.778 35.1116 17.9974 35.3406 18.2235C35.5763 18.4612 35.8118 18.6992 36.0469 18.9375C36.2253 19.117 36.2253 19.117 36.4073 19.3002C38.1705 21.0802 39.7172 22.8366 41 25C41.1948 25.3115 41.3901 25.6227 41.586 25.9336C44.5866 30.7492 44.5866 30.7492 44.4438 31.9882C44.1942 32.6476 43.8945 32.8528 43.3204 33.2559C43.1283 33.3925 42.9362 33.5291 42.7383 33.6699C42.5359 33.8098 42.3336 33.9496 42.125 34.0938C41.9304 34.2317 41.7357 34.3696 41.5352 34.5117C40.2065 35.4489 38.8568 36.354 37.5 37.25C36.955 36.7447 36.599 36.2864 36.2725 35.6201C36.1862 35.4487 36.1 35.2772 36.0111 35.1005C35.9198 34.9178 35.8285 34.7351 35.7344 34.5469C34.6648 32.4653 33.4062 30.6152 32 28.75C31.8727 28.5695 31.7455 28.3891 31.6143 28.2031C29.9406 25.8472 27.8114 23.7645 25.75 21.75C25.915 21.42 26.08 21.09 26.25 20.75C26.415 20.75 26.58 20.75 26.75 20.75C26.6675 20.585 26.585 20.42 26.5 20.25C26.005 20.58 25.51 20.91 25 21.25C25.3716 22.1498 25.8707 22.626 26.6094 23.25C30.1275 26.3474 32.8062 29.9518 35.0125 34.0731C35.2264 34.4575 35.4645 34.8281 35.7051 35.1963C35.8511 35.4704 35.8511 35.4704 36 35.75C35.8763 36.1213 35.8763 36.1213 35.75 36.5C35.1094 36.7969 35.1094 36.7969 34.5 37C33.2796 35.5036 32.1084 33.984 30.9893 32.4102C30.4363 31.664 29.85 30.9588 29.25 30.25C29.2477 30.4354 29.2454 30.6208 29.243 30.8118C29.2296 31.6508 29.2086 32.4893 29.1875 33.3281C29.184 33.6199 29.1804 33.9117 29.1768 34.2124C29.1687 34.492 29.1607 34.7715 29.1524 35.0596C29.1471 35.3175 29.1419 35.5754 29.1365 35.8411C29 36.5 29 36.5 28.5653 36.9099C27.9203 37.298 27.5664 37.3461 26.8198 37.351C26.4707 37.3558 26.4707 37.3558 26.1145 37.3606C25.865 37.3599 25.6155 37.3592 25.3584 37.3584C25.1008 37.3597 24.8432 37.361 24.5778 37.3624C24.0338 37.364 23.4897 37.3636 22.9457 37.3615C22.1116 37.3594 21.2779 37.3666 20.4439 37.3745C19.9154 37.3749 19.3869 37.3748 18.8584 37.374C18.4834 37.3782 18.4834 37.3782 18.1008 37.3825C17.7529 37.379 17.7529 37.379 17.3979 37.3754C17.1939 37.3754 16.9898 37.3753 16.7796 37.3753C16.25 37.25 16.25 37.25 15.8099 36.8745C15.3641 35.9761 15.3915 35.1142 15.3951 34.1328C15.3929 33.9197 15.3908 33.7066 15.3886 33.487C15.3828 32.783 15.3825 32.0791 15.3829 31.375C15.3811 30.8856 15.3792 30.3962 15.3771 29.9067C15.3737 28.8812 15.3733 27.8556 15.3748 26.8301C15.3763 25.5152 15.3686 24.2005 15.3585 22.8857C15.3521 21.8751 15.3513 20.8645 15.3522 19.8539C15.3518 19.3691 15.3494 18.8843 15.345 18.3995C15.3394 17.7219 15.3418 17.0448 15.3462 16.3672C15.3429 16.1666 15.3396 15.9661 15.3362 15.7595C15.351 14.7834 15.4124 14.3443 16.0878 13.6177C16.75 13.25 16.75 13.25 17.5 13.25C17.4897 12.9767 17.4794 12.7034 17.4688 12.4219C17.5 11.5 17.5 11.5 18 10.75C18.6563 10.5781 18.6563 10.5781 19.25 10.5C19.25 10.2525 19.25 10.005 19.25 9.75Z" fill="#FEF8F6"/>
<path d="M32.9739 16.2776C33.6889 16.5799 34.115 17.0133 34.667 17.5586C34.8893 17.778 35.1116 17.9974 35.3406 18.2235C35.5763 18.4612 35.8117 18.6992 36.0469 18.9375C36.1658 19.0572 36.2847 19.1769 36.4073 19.3002C38.1705 21.0802 39.7172 22.8366 41 25C41.1948 25.3116 41.3901 25.6227 41.5859 25.9336C44.5865 30.7492 44.5865 30.7492 44.4437 31.9882C44.1941 32.6476 43.8945 32.8528 43.3203 33.2559C43.1282 33.3925 42.9362 33.5291 42.7383 33.6699C42.5359 33.8098 42.3335 33.9497 42.125 34.0938C41.9304 34.2317 41.7357 34.3696 41.5352 34.5117C40.2064 35.4489 38.8568 36.354 37.5 37.25C36.955 36.7447 36.599 36.2864 36.2725 35.6201C36.1862 35.4487 36.0999 35.2772 36.011 35.1005C35.9197 34.9178 35.8284 34.7351 35.7344 34.5469C34.6648 32.4653 33.4062 30.6152 32 28.75C31.8727 28.5695 31.7454 28.3891 31.6143 28.2031C29.9406 25.8472 27.8114 23.7645 25.75 21.75C26.0629 20.7766 26.6334 20.4961 27.5063 20.0335C28.3896 19.5263 29.1532 18.8648 29.9375 18.2188C30.2641 17.9522 30.5909 17.6859 30.918 17.4199C31.131 17.2449 31.131 17.2449 31.3484 17.0663C32.3928 16.2438 32.3928 16.2438 32.9739 16.2776Z" fill="#FEFBFA"/>
<path d="M30 40.2031C30.263 40.1978 30.263 40.1978 30.5312 40.1924C31 40.25 31 40.25 31.5 40.75C31.5601 41.2087 31.5601 41.2087 31.5568 41.7706C31.5567 41.9808 31.5567 42.191 31.5566 42.4075C31.5541 42.6346 31.5515 42.8617 31.5488 43.0957C31.5481 43.3281 31.5474 43.5604 31.5467 43.7998C31.5439 44.5436 31.5376 45.2874 31.5312 46.0312C31.5287 46.5348 31.5265 47.0384 31.5244 47.542C31.5189 48.778 31.5103 50.014 31.5 51.25C30.51 51.25 29.52 51.25 28.5 51.25C28.3762 48.775 28.3762 48.775 28.25 46.25C27.755 46.9925 27.755 46.9925 27.25 47.75C26.375 47.9375 26.375 47.9375 25.5 47.75C25.17 47.255 24.84 46.76 24.5 46.25C24.4175 47.9 24.335 49.55 24.25 51.25C23.26 51.25 22.27 51.25 21.25 51.25C21.25 47.7025 21.25 44.155 21.25 40.5C22.1575 40.5 23.065 40.5 24 40.5C24.5937 41.1094 24.5937 41.1094 25 42C25.2267 42.4076 25.4559 42.8139 25.6875 43.2188C25.8756 43.5622 26.0634 43.9058 26.25 44.25C27.0303 43.2694 27.5726 42.1989 28.1494 41.0908C28.657 40.2355 29.0591 40.2118 30 40.2031Z" fill="#FEF9F7"/>
<path d="M27.6875 17.8437C27.8731 17.9778 28.0588 18.1119 28.25 18.25C27.8681 19.2715 27.2223 19.6996 26.3438 20.3125C26.093 20.4891 25.8423 20.6657 25.584 20.8476C25.2949 21.0468 25.2949 21.0468 25 21.25C25.3716 22.1498 25.8707 22.6259 26.6094 23.25C30.1275 26.3474 32.8062 29.9518 35.0125 34.0731C35.2263 34.4575 35.4644 34.8281 35.7051 35.1963C35.8511 35.4704 35.8511 35.4704 36 35.75C35.8763 36.1212 35.8763 36.1212 35.75 36.5C35.1094 36.7969 35.1094 36.7969 34.5 37C33.4791 35.7483 32.4824 34.4889 31.5469 33.1719C30.763 32.0843 29.9392 31.0422 29.0781 30.0156C28.9652 29.8797 28.8523 29.7437 28.736 29.6037C27.3854 28.0023 27.3854 28.0023 25.5 27.25C25.4794 27.1005 25.4587 26.9509 25.4375 26.7969C25.1986 26.1002 24.8387 25.9178 24.25 25.5C24.25 25.335 24.25 25.17 24.25 25C24.085 24.9897 23.92 24.9794 23.75 24.9687C22.6527 24.6487 21.8787 23.963 21 23.25C21.2739 22.4282 21.4445 22.28 22.0938 21.75C23.2622 20.765 24.3107 19.6871 25.3711 18.5889C26.6962 17.3481 26.6962 17.3481 27.6875 17.8437Z" fill="#FEF8F6"/>
<path d="M37.75 42.75C38.5661 43.0958 39.125 43.625 39.75 44.25C40.1249 45.925 40.4633 48.1812 39.7647 49.793C39.1497 50.5718 38.4556 51.0278 37.5 51.25C36.1503 51.3371 35.0152 51.2853 33.75 50.75C32.417 49.1013 32.311 47.5549 32.5 45.5C32.8115 44.496 33.3803 43.8639 34.1406 43.1406C35.3565 42.588 36.4353 42.5507 37.75 42.75Z" fill="#FEF7F5"/>
<path d="M17.75 16.75C20.72 16.75 23.69 16.75 26.75 16.75C26.4769 17.8422 26.2446 18.0946 25.4629 18.8604C25.2528 19.0681 25.0427 19.2758 24.8262 19.4897C24.6051 19.7045 24.384 19.9193 24.1562 20.1406C23.9371 20.3564 23.718 20.5721 23.4922 20.7944C23.0847 21.1954 22.6765 21.5955 22.2672 21.9947C21.8418 22.4103 21.4194 22.8284 21 23.25C21.1702 23.3016 21.3403 23.3531 21.5156 23.4063C22.4854 23.8602 23.2403 24.4991 24 25.25C24 25.3325 24 25.415 24 25.5C21.9375 25.5 19.875 25.5 17.75 25.5C17.75 22.6125 17.75 19.725 17.75 16.75Z" fill="#F26F23"/>
<path d="M13.2499 42.75C14.2081 43.2545 14.8036 43.9257 15.3593 44.8437C15.5547 45.7557 15.5465 46.567 15.4999 47.5C15.2499 47.75 15.2499 47.75 14.8084 47.7784C14.6212 47.7771 14.434 47.7757 14.2411 47.7744C14.0389 47.7736 13.8367 47.7728 13.6283 47.772C13.4158 47.7699 13.2033 47.7678 12.9843 47.7656C12.7708 47.7645 12.5573 47.7634 12.3373 47.7622C11.8082 47.7592 11.279 47.7548 10.7499 47.75C10.8587 48.2715 10.8587 48.2715 11.2499 48.75C11.9161 48.8668 12.4876 48.9239 13.1562 48.9375C13.4211 48.9486 13.4211 48.9486 13.6913 48.9599C14.1274 48.9776 14.5636 48.9894 14.9999 49C14.9999 49.66 14.9999 50.32 14.9999 51C13.1212 51.3955 11.0357 51.5357 9.2499 50.75C7.95967 49.1542 7.84728 47.734 7.9999 45.75C8.29516 44.4783 8.91532 43.723 9.9999 43C11.0003 42.4998 12.1651 42.5916 13.2499 42.75Z" fill="#FEF8F6"/>
<path d="M48.3438 42.6875C48.6242 42.6811 48.9046 42.6746 49.1934 42.668C50.1027 42.7604 50.5361 42.9357 51.2501 43.5C51.9485 44.4576 52.0907 45.1176 52.0733 46.2939C52.0709 46.5832 52.0685 46.8724 52.066 47.1704C52.0597 47.47 52.0534 47.7695 52.047 48.0781C52.0419 48.5347 52.0419 48.5347 52.0367 49.0005C52.0279 49.7504 52.0156 50.5002 52.0001 51.25C51.1044 51.2863 50.2088 51.3085 49.3126 51.3281C48.9317 51.3438 48.9317 51.3438 48.5431 51.3599C46.6699 51.3907 46.6699 51.3907 45.8341 50.6982C45.3092 49.6009 45.2528 48.688 45.5001 47.5C46.2094 46.5415 46.2094 46.5415 47.0001 46.25C47.9272 46.1546 48.8221 46.1757 49.7501 46.25C49.6631 45.7562 49.6631 45.7562 49.5001 45.25C48.809 44.9044 48.2386 44.9762 47.4688 44.9844C47.1949 44.9866 46.921 44.9889 46.6388 44.9912C46.3226 44.9956 46.3226 44.9956 46.0001 45C46.0001 44.34 46.0001 43.68 46.0001 43C46.8259 42.7247 47.4747 42.6994 48.3438 42.6875Z" fill="#FEF8F5"/>
<path d="M41.5 40.25C42.325 40.25 43.15 40.25 44 40.25C44 43.88 44 47.51 44 51.25C43.0925 51.25 42.185 51.25 41.25 51.25C41.2439 49.7236 41.2393 48.1972 41.2363 46.6708C41.235 46.1511 41.2333 45.6314 41.2312 45.1118C41.2282 44.3665 41.2267 43.6212 41.2256 42.876C41.2237 42.5252 41.2237 42.5252 41.2217 42.1673C41.2217 41.9521 41.2217 41.7369 41.2217 41.5152C41.2211 41.3248 41.2205 41.1344 41.22 40.9382C41.25 40.5 41.25 40.5 41.5 40.25Z" fill="#FEF8F7"/>
<path d="M37.2501 23.75C37.9532 24 37.9532 24 38.5001 24.25C38.7643 25.5712 38.7643 25.5712 38.7501 26.25C38.2657 26.875 38.2657 26.875 37.7501 27.25C37.3438 26.8437 37.3438 26.8437 37.0001 26.25C37.2032 25.4375 37.2032 25.4375 37.5001 24.75C37.2526 24.915 37.0051 25.08 36.7501 25.25C36.6969 25.8861 36.7514 26.487 36.7969 27.123C36.7403 27.881 36.4987 28.1916 36.0001 28.75C34.3228 28.4704 34.3228 28.4704 33.7501 28C33.5145 27.14 33.3434 26.3132 33.7501 25.5C34.0801 25.665 34.4101 25.83 34.7501 26C34.7501 27 34.7501 27 34.5001 27.5C34.7476 27.4175 34.9951 27.335 35.2501 27.25C35.2414 27.0602 35.2327 26.8704 35.2237 26.6748C35.2169 26.4263 35.2102 26.1779 35.2032 25.9219C35.1945 25.6753 35.1858 25.4288 35.1768 25.1748C35.2501 24.5 35.2501 24.5 35.5909 24.041C36.1766 23.6244 36.5438 23.6659 37.2501 23.75Z" fill="#F37226"/>
<path d="M36.375 45.2188C37 45.25 37 45.25 37.25 45.5C37.2813 45.994 37.2939 46.4893 37.2969 46.9844C37.3004 47.2548 37.304 47.5251 37.3076 47.8037C37.25 48.5 37.25 48.5 36.75 49C35.8661 48.8661 35.8661 48.8661 35.5 48.5C35.4753 48.0005 35.4676 47.5001 35.4687 47C35.4681 46.7267 35.4675 46.4534 35.4668 46.1719C35.5118 45.2619 35.5118 45.2619 36.375 45.2188Z" fill="#F26A1C"/>
<path d="M16.75 46.75C17.8225 46.75 18.895 46.75 20 46.75C20 47.1625 20 47.575 20 48C18.9275 48 17.855 48 16.75 48C16.75 47.5875 16.75 47.175 16.75 46.75Z" fill="#FDF5F2"/>
<path d="M21.25 33.25C21.91 33.25 22.57 33.25 23.25 33.25C23.25 33.91 23.25 34.57 23.25 35.25C22.59 35.25 21.93 35.25 21.25 35.25C21.25 34.59 21.25 33.93 21.25 33.25Z" fill="#F37835"/>
<path d="M29.5 25.75C30.8694 26.8393 31.8757 27.9744 32.875 29.4062C33.0123 29.5938 33.1496 29.7814 33.291 29.9746C33.4193 30.1564 33.5475 30.3381 33.6797 30.5254C33.7955 30.6887 33.9114 30.8519 34.0308 31.0201C34.3038 31.6177 34.2214 31.8949 34 32.5C33.9149 32.3695 33.8298 32.239 33.7422 32.1045C32.026 29.3852 32.026 29.3852 29.9395 26.9658C29.5 26.5 29.5 26.5 29.5 25.75Z" fill="#F26817"/>
<path d="M26.75 27.5C26.75 28.0775 26.75 28.655 26.75 29.25C26.0075 29.25 25.265 29.25 24.5 29.25C24.5 28.6725 24.5 28.095 24.5 27.5C26.1875 27.2188 26.1875 27.2188 26.75 27.5Z" fill="#F3762B"/>
<path d="M11 48C12.4025 48 13.805 48 15.25 48C15.1675 48.33 15.085 48.66 15 49C13.7625 49 12.525 49 11.25 49C11.1675 48.67 11.085 48.34 11 48Z" fill="#F26C18"/>
<path d="M17.75 33.25C19.2881 33.2256 19.2881 33.2256 19.75 33.25C20 33.5 20 33.5 20.0156 34.2656C20.0105 34.508 20.0053 34.7503 20 35C19.2575 35 18.515 35 17.75 35C17.75 34.4225 17.75 33.845 17.75 33.25Z" fill="#F37A3F"/>
<path d="M24.5 30.5C25.2425 30.5 25.985 30.5 26.75 30.5C26.7606 30.9999 26.7602 31.5001 26.75 32C26.5 32.25 26.5 32.25 26.0381 32.2744C25.5254 32.2663 25.0127 32.2581 24.5 32.25C24.5 31.6725 24.5 31.095 24.5 30.5Z" fill="#F26D1F"/>
<path d="M17.75 30.5C18.4925 30.5 19.235 30.5 20 30.5C20.0106 30.9999 20.0102 31.5001 20 32C19.75 32.25 19.75 32.25 19.2881 32.2744C18.7754 32.2663 18.2627 32.2581 17.75 32.25C17.75 31.6725 17.75 31.095 17.75 30.5Z" fill="#F37733"/>
<path d="M17.75 27.5C19.2881 27.4756 19.2881 27.4756 19.75 27.5C20 27.75 20 27.75 20.0156 28.5156C20.0105 28.758 20.0053 29.0003 20 29.25C19.2575 29.25 18.515 29.25 17.75 29.25C17.75 28.6725 17.75 28.095 17.75 27.5Z" fill="#F26C1C"/>
<path d="M25.625 33.2188C26.5 33.25 26.5 33.25 26.75 33.5C26.7602 33.9999 26.7606 34.5001 26.75 35C26.0075 35 25.265 35 24.5 35C24.4894 34.5001 24.4898 33.9999 24.5 33.5C24.75 33.25 24.75 33.25 25.625 33.2188Z" fill="#F36F1E"/>
<path d="M21.25 30.5C21.91 30.5 22.57 30.5 23.25 30.5C23.25 31.0775 23.25 31.655 23.25 32.25C22.59 32.25 21.93 32.25 21.25 32.25C21.25 31.6725 21.25 31.095 21.25 30.5Z" fill="#F37024"/>
<path d="M21.25 27.5C21.91 27.5 22.57 27.5 23.25 27.5C23.25 28.0775 23.25 28.655 23.25 29.25C22.59 29.25 21.93 29.25 21.25 29.25C21.25 28.6725 21.25 28.095 21.25 27.5Z" fill="#F37227"/>
<path d="M48.8906 47.7344C49.1742 47.7395 49.4578 47.7447 49.75 47.75C49.7606 48.2499 49.7602 48.7501 49.75 49.25C49.5 49.5 49.5 49.5 48.6094 49.5156C48.3258 49.5105 48.0422 49.5053 47.75 49.5C47.7394 49.0001 47.7398 48.4999 47.75 48C48 47.75 48 47.75 48.8906 47.7344Z" fill="#F37939"/>
<path d="M19.5 8.75C20.3797 8.8254 20.7519 9.00151 21.4531 9.5625C22 10.25 22 10.25 22.0781 10.9531C22.0395 11.2238 22.0395 11.2238 22 11.5C21.7525 11.5 21.505 11.5 21.25 11.5C21.1933 11.2628 21.1366 11.0256 21.0781 10.7813C20.8273 9.95169 20.8273 9.95169 20.0938 9.65625C19.8978 9.60469 19.7019 9.55313 19.5 9.5C19.5 9.2525 19.5 9.005 19.5 8.75Z" fill="#FCE6DF"/>
<path d="M11.25 45C11.7518 45.0717 12.2521 45.1547 12.75 45.25C12.75 45.58 12.75 45.91 12.75 46.25C12.09 46.25 11.43 46.25 10.75 46.25C10.9688 45.2812 10.9688 45.2812 11.25 45Z" fill="#F3712A"/>
<path d="M17.75 27.5C19.2881 27.4756 19.2881 27.4756 19.75 27.5C20 27.75 20 27.75 20.0156 28.5156C20.0105 28.758 20.0053 29.0003 20 29.25C19.835 29.1675 19.67 29.085 19.5 29C19.5 28.67 19.5 28.34 19.5 28C19.005 28 18.51 28 18 28C18 28.4125 18 28.825 18 29.25C17.9175 29.25 17.835 29.25 17.75 29.25C17.75 28.6725 17.75 28.095 17.75 27.5Z" fill="#F48348"/>
<path d="M18 33.5C18.495 33.5 18.99 33.5 19.5 33.5C19.5 33.9125 19.5 34.325 19.5 34.75C19.005 34.75 18.51 34.75 18 34.75C18 34.3375 18 33.925 18 33.5Z" fill="#F37021"/>
<path d="M21 14.75C21.825 14.75 22.65 14.75 23.5 14.75C23.5 14.9975 23.5 15.245 23.5 15.5C22.675 15.5 21.85 15.5 21 15.5C21 15.2525 21 15.005 21 14.75Z" fill="#F37024"/>
<path d="M19.25 9.75C20.0577 9.88926 20.5059 10.083 21 10.75C21 11.08 21 11.41 21 11.75C20.835 11.75 20.67 11.75 20.5 11.75C20.4175 11.5025 20.335 11.255 20.25 11C19.75 10.6978 19.75 10.6978 19.25 10.5C19.25 10.2525 19.25 10.005 19.25 9.75Z" fill="#FCE3DB"/>
<path d="M26.5 30.5C26.5825 30.5 26.665 30.5 26.75 30.5C26.7606 30.9999 26.7602 31.5001 26.75 32C26.5 32.25 26.5 32.25 26.0381 32.2744C25.5254 32.2663 25.0127 32.2581 24.5 32.25C24.5825 32.085 24.665 31.92 24.75 31.75C25.245 31.75 25.74 31.75 26.25 31.75C26.3325 31.3375 26.415 30.925 26.5 30.5Z" fill="#F48039"/>
<path d="M24.75 33.25C25.3332 33.2394 25.9168 33.2398 26.5 33.25C26.75 33.5 26.75 33.5 26.7656 34.2656C26.7605 34.508 26.7553 34.7503 26.75 35C26.585 34.9175 26.42 34.835 26.25 34.75C26.25 34.42 26.25 34.09 26.25 33.75C25.755 33.75 25.26 33.75 24.75 33.75C24.75 33.585 24.75 33.42 24.75 33.25Z" fill="#F37835"/>
<path d="M18.25 30.75C18.6625 30.75 19.075 30.75 19.5 30.75C19.5 31.08 19.5 31.41 19.5 31.75C19.0875 31.75 18.675 31.75 18.25 31.75C18.25 31.42 18.25 31.09 18.25 30.75Z" fill="#F37227"/>
<path d="M37 24.75C37.165 24.75 37.33 24.75 37.5 24.75C37.3251 25.5368 37.0598 26.2565 36.75 27C36.6675 27 36.585 27 36.5 27C36.4687 26.1562 36.4687 26.1562 36.5 25.25C36.665 25.085 36.83 24.92 37 24.75Z" fill="#FBDACF"/>
<path d="M29.5 25.75C29.995 26.1625 30.49 26.575 31 27C30.9175 27.2475 30.835 27.495 30.75 27.75C30.125 27.1719 30.125 27.1719 29.5 26.5C29.5 26.2525 29.5 26.005 29.5 25.75Z" fill="#F26511"/>
<path d="M31 27.25C31.6538 27.8416 32.0661 28.4855 32.5 29.25C32.2525 29.3737 32.2525 29.3737 32 29.5C31 28.375 31 28.375 31 27.25Z" fill="#F37633"/>
</g>
<defs>
<clipPath id="clip0_1016_1277">
<rect width="60" height="60" fill="white"/>
</clipPath>
</defs>
</svg>
