<svg width="60" height="60" viewBox="0 0 60 60" fill="none" xmlns="http://www.w3.org/2000/svg">
<path d="M25.1288 3.16343C25.2289 3.16269 25.329 3.16194 25.4322 3.16117C25.7608 3.15942 26.0893 3.16143 26.4179 3.16366C26.6477 3.16357 26.8776 3.16332 27.1074 3.1629C27.5883 3.16243 28.0691 3.16407 28.5499 3.16699C29.1034 3.17033 29.6569 3.17033 30.2105 3.16853C30.7459 3.16687 31.2813 3.1676 31.8166 3.16936C32.0431 3.1699 32.2697 3.16985 32.4962 3.1692C32.8135 3.16863 33.1307 3.17076 33.4481 3.1736C33.5406 3.17292 33.633 3.17224 33.7283 3.17154C34.5426 3.18386 35.343 3.40054 35.9501 4.07919C36.4554 4.77997 36.7179 5.44978 36.7159 6.37058C36.7159 6.47481 36.7159 6.57905 36.7159 6.68644C36.7155 6.79768 36.715 6.90892 36.7145 7.02352C36.7143 7.19583 36.7143 7.19583 36.7141 7.37161C36.7137 7.73776 36.7125 8.10391 36.7114 8.47006C36.711 8.71861 36.7106 8.96716 36.7102 9.2157C36.7092 9.82436 36.7078 10.433 36.7059 11.0417C36.1765 10.8333 36.1765 10.8333 34.9412 10.1042C34.9412 8.72917 34.9412 7.35417 34.9412 5.93751C31.3015 5.93751 27.6618 5.93751 23.9118 5.93751C23.9409 9.34063 23.97 12.7438 24 16.25C24.3711 15.7454 24.3711 15.7454 24.7059 15.2083C24.7641 15.2083 24.8224 15.2083 24.8824 15.2083C24.9813 15.3695 24.9813 15.3695 25.0975 15.599C25.6817 16.6638 26.4361 17.6641 27.4467 18.151C27.8634 18.1092 28.1044 17.8166 28.4118 17.5C28.4733 17.4386 28.5349 17.3773 28.5983 17.3141C28.933 16.9754 29.2545 16.6268 29.5589 16.25C29.6137 16.1823 29.6685 16.1147 29.725 16.0449C31.089 14.3135 32.142 12.3361 33 10.2083C33.4621 10.2615 33.7931 10.3888 34.2022 10.6445C34.3248 10.7197 34.4475 10.7945 34.5703 10.8691C34.6407 10.912 34.711 10.9548 34.7835 10.9989C35.299 11.3069 35.8211 11.5993 36.3419 11.8945C37.6432 12.6326 37.6432 12.6326 38.2611 13.0055C38.4777 13.129 38.6979 13.2395 38.9193 13.3504C39.2252 13.5081 39.5243 13.6824 39.8241 13.8554C39.8918 13.8943 39.9595 13.9331 40.0292 13.9732C40.2432 14.0961 40.4571 14.2193 40.671 14.3425C40.8169 14.4264 40.9629 14.5102 41.1089 14.5941C41.4648 14.7987 41.8207 15.0035 42.1765 15.2083C41.0346 18.0555 38.1355 19.9066 35.7684 20.9566C34.4051 21.5241 32.9349 21.8765 31.5 22.0833C31.4316 22.0933 31.3632 22.1033 31.2928 22.1136C30.4125 22.2203 29.5277 22.2032 28.6439 22.2011C28.365 22.2005 28.086 22.2011 27.8071 22.2017C26.961 22.2021 26.1166 22.1926 25.2715 22.1411C25.205 22.1371 25.1386 22.133 25.0701 22.1289C24.6775 22.1018 24.303 22.0451 23.9118 21.9792C23.9118 24.1448 23.9118 26.3104 23.9118 28.5417C27.5515 28.5417 31.1912 28.5417 34.9412 28.5417C34.9412 26.4448 34.9412 24.3479 34.9412 22.1875C36.353 21.5625 36.353 21.5625 36.7059 21.5625C36.7121 23.0521 36.7168 24.5416 36.7196 26.0312C36.721 26.723 36.7229 27.4147 36.7259 28.1064C36.7288 28.7744 36.7303 29.4423 36.731 30.1103C36.7315 30.3647 36.7325 30.6191 36.7339 30.8735C36.7358 31.2308 36.7361 31.5881 36.736 31.9454C36.7369 32.0497 36.7379 32.1541 36.7388 32.2616C36.7345 33.4379 36.4766 34.3061 35.7846 35.1563C35.1472 35.8452 34.4467 35.8797 33.6289 35.8771C33.5259 35.878 33.423 35.8788 33.3169 35.8798C32.9779 35.8822 32.639 35.8823 32.3 35.8822C32.1234 35.8827 31.9467 35.8833 31.7701 35.8839C31.2152 35.8859 30.6603 35.8862 30.1054 35.8855C29.5347 35.8848 28.964 35.8872 28.3934 35.8911C27.9017 35.8943 27.41 35.8955 26.9184 35.8951C26.6254 35.8948 26.3326 35.8956 26.0397 35.898C25.7127 35.9003 25.386 35.8993 25.059 35.8974C24.9632 35.8988 24.8673 35.9002 24.7685 35.9016C24.1375 35.8934 23.7248 35.735 23.2059 35.3125C23.064 35.1997 23.064 35.1997 22.9191 35.0846C22.4126 34.4731 22.1357 33.6893 22.1365 32.8364C22.1364 32.7368 22.1362 32.6371 22.1361 32.5345C22.1366 32.3717 22.1366 32.3717 22.1371 32.2055C22.1371 32.0906 22.137 31.9758 22.137 31.8574C22.1371 31.4775 22.1378 31.0977 22.1385 30.7178C22.1386 30.4545 22.1388 30.1912 22.1388 29.9279C22.1392 29.3055 22.1398 28.6832 22.1407 28.0608C22.1417 27.3522 22.1422 26.6435 22.1426 25.9349C22.1436 24.4774 22.1451 23.02 22.1471 21.5625C21.8817 21.5642 21.8817 21.5642 21.6164 21.5659C21.4178 21.5621 21.2376 21.5303 21.0441 21.4779C20.7658 21.4059 20.4877 21.3378 20.2073 21.2781C20.1452 21.2648 20.0832 21.2516 20.0193 21.2379C19.8965 21.2119 19.7737 21.1861 19.6508 21.1606C19.2932 21.0836 18.9615 20.9703 18.6177 20.8333C18.2992 20.7504 17.9798 20.6762 17.6598 20.6022C17.3824 20.5208 17.3824 20.5208 17.1177 20.3125C17.2116 20.3086 17.3056 20.3047 17.4024 20.3007C18.9565 20.2239 20.3306 19.8776 21.6042 18.7752C21.8824 18.5417 21.8824 18.5417 22.0589 18.5417C22.0589 18.4755 22.0589 18.4094 22.059 18.3412C22.0603 16.7283 22.0641 15.1154 22.0705 13.5025C22.0736 12.7225 22.0758 11.9425 22.0761 11.1625C22.0764 10.4823 22.0782 9.8021 22.0818 9.12188C22.0837 8.76203 22.0848 8.40223 22.0841 8.04238C22.0833 7.63968 22.086 7.23706 22.0889 6.83437C22.0881 6.71636 22.0874 6.59835 22.0866 6.47676C22.0982 5.52572 22.3227 4.79011 22.8695 4.08204C23.5449 3.35394 24.2336 3.15166 25.1288 3.16343Z" fill="white"/>
<path d="M32.9998 10.2083C33.4618 10.2615 33.7928 10.3888 34.202 10.6445C34.3246 10.7197 34.4473 10.7945 34.5701 10.8691C34.6756 10.9334 34.6756 10.9334 34.7833 10.9989C35.2988 11.3069 35.8209 11.5993 36.3417 11.8945C37.643 12.6326 37.643 12.6326 38.2609 13.0055C38.4774 13.129 38.6977 13.2395 38.9191 13.3503C39.225 13.5081 39.524 13.6824 39.8239 13.8554C39.8916 13.8942 39.9593 13.9331 40.029 13.9732C40.243 14.0961 40.4569 14.2193 40.6708 14.3424C40.8167 14.4263 40.9627 14.5102 41.1087 14.5941C41.4646 14.7987 41.8205 15.0034 42.1763 15.2083C41.0343 18.0555 38.1352 19.9066 35.7682 20.9566C34.4048 21.5241 32.9346 21.8764 31.4998 22.0833C31.4314 22.0933 31.363 22.1033 31.2926 22.1135C30.4123 22.2203 29.5275 22.2032 28.6437 22.2011C28.3647 22.2005 28.0858 22.2011 27.8068 22.2017C26.9607 22.2021 26.1164 22.1926 25.2713 22.1411C25.2048 22.1371 25.1383 22.133 25.0698 22.1289C24.6792 22.102 24.2977 22.0505 23.9116 21.9792C23.9026 21.2192 23.8964 20.4593 23.8922 19.6992C23.8904 19.4408 23.888 19.1823 23.8849 18.9239C23.8807 18.5521 23.8787 18.1803 23.8771 17.8084C23.8744 17.6355 23.8744 17.6355 23.8716 17.4592C23.8714 16.8097 23.9004 16.4341 24.2645 15.9375C24.3057 15.8647 24.3469 15.7919 24.3893 15.717C24.4904 15.5437 24.5979 15.3758 24.7057 15.2083C24.7639 15.2083 24.8222 15.2083 24.8822 15.2083C24.9811 15.3695 24.9811 15.3695 25.0972 15.599C25.6815 16.6638 26.4359 17.6641 27.4465 18.151C27.8632 18.1092 28.1042 17.8166 28.4116 17.5C28.4731 17.4386 28.5346 17.3773 28.598 17.314C28.9328 16.9754 29.2543 16.6268 29.5586 16.25C29.6135 16.1823 29.6683 16.1146 29.7248 16.0449C31.0887 14.3135 32.1418 12.3361 32.9998 10.2083Z" fill="#63A42D"/>
<path d="M25.6931 43.1836C25.7606 43.1824 25.8281 43.1811 25.8977 43.1799C27.4536 43.1551 28.9176 43.4941 30.0883 44.7917C30.7148 45.6448 31.1096 46.676 31.1472 47.8125C31.1517 47.936 31.1563 48.0596 31.1609 48.1869C31.2012 49.811 30.9423 51.2182 30.0277 52.474C29.1568 53.5474 28.096 54.0634 26.8357 54.1057C26.768 54.1065 26.7003 54.1073 26.6306 54.1081C26.5678 54.1091 26.505 54.1102 26.4403 54.1113C25.8959 54.1009 25.401 53.9371 24.8824 53.75C24.8831 53.9385 24.8831 53.9385 24.8838 54.1308C24.8854 54.5954 24.8865 55.0599 24.8873 55.5245C24.8877 55.7259 24.8883 55.9272 24.8891 56.1286C24.8902 56.4174 24.8907 56.7062 24.8911 56.995C24.8915 57.0856 24.892 57.1762 24.8924 57.2696C24.8925 57.4853 24.8879 57.701 24.8824 57.9167C24.7942 58.0208 24.7942 58.0208 24.5655 58.0327C24.4662 58.0321 24.3668 58.0316 24.2645 58.031C24.1573 58.0307 24.0501 58.0303 23.9396 58.03C23.8267 58.0291 23.7138 58.0282 23.5975 58.0273C23.4843 58.0269 23.3711 58.0264 23.2544 58.0259C22.9735 58.0247 22.6927 58.023 22.4119 58.0208C22.4098 56.1484 22.4082 54.2759 22.4073 52.4034C22.4068 51.5341 22.4062 50.6647 22.4052 49.7954C22.4043 49.0379 22.4038 48.2804 22.4036 47.523C22.4034 47.1217 22.4032 46.7204 22.4025 46.319C22.4019 45.9417 22.4017 45.5644 22.4019 45.1871C22.4018 44.9818 22.4014 44.7764 22.4009 44.5711C22.401 44.45 22.4011 44.3289 22.4012 44.2041C22.4012 44.0982 22.4011 43.9923 22.401 43.8832C22.4119 43.6458 22.4119 43.6458 22.5001 43.5417C23.5456 43.2057 24.6174 43.1925 25.6931 43.1836Z" fill="white"/>
<path d="M8.44047 43.6544C8.88097 43.8581 9.25223 43.7964 9.67852 43.6003C9.77497 43.5466 9.87142 43.4928 9.9708 43.4375C11.2693 43.0098 13.0233 43.2638 14.1906 44.0238C15.1271 44.7206 15.6308 45.715 15.8826 46.9792C15.9268 47.5299 15.9241 48.0757 15.917 48.6279C15.9164 48.7826 15.9159 48.9373 15.9155 49.092C15.9142 49.4948 15.9107 49.8975 15.9068 50.3003C15.9025 50.7859 15.9009 51.2715 15.8989 51.757C15.8955 52.4909 15.8887 53.2245 15.8826 53.9583C15.0382 53.9583 14.1937 53.9583 13.3237 53.9583C13.3215 53.4792 13.3192 53.0001 13.3168 52.5065C13.3146 52.2017 13.3123 51.897 13.3096 51.5922C13.3054 51.1092 13.3015 50.6262 13.2998 50.1432C13.2985 49.7534 13.2954 49.3638 13.2912 48.974C13.2899 48.8259 13.2892 48.6777 13.2892 48.5295C13.2883 47.7008 13.2848 47.0517 12.8826 46.3542C12.6817 46.1738 12.4967 46.0642 12.2649 45.9375C12.2067 45.9031 12.1484 45.8688 12.0884 45.8333C11.8754 45.8231 11.662 45.8198 11.4487 45.8203C11.3336 45.82 11.2185 45.8198 11.0999 45.8195C10.8025 45.8318 10.5271 45.8702 10.2355 45.9375C10.2499 46.0252 10.2642 46.1128 10.279 46.2031C10.3258 46.5787 10.3343 46.9328 10.3338 47.3124C10.3338 47.3846 10.3338 47.4568 10.3338 47.5312C10.3337 47.768 10.3331 48.0047 10.3324 48.2414C10.3322 48.4063 10.3321 48.5712 10.332 48.7361C10.3316 49.1687 10.3308 49.6013 10.3298 50.0338C10.3289 50.4758 10.3285 50.9179 10.328 51.3599C10.3271 52.226 10.3256 53.0922 10.3237 53.9583C9.53756 53.9583 8.75139 53.9583 7.94139 53.9583C7.94102 53.7576 7.94066 53.5568 7.94029 53.35C7.93857 52.6843 7.93483 52.0187 7.92973 51.3531C7.92671 50.9498 7.92449 50.5465 7.92413 50.1432C7.92375 49.7534 7.92123 49.3638 7.91726 48.974C7.91612 48.8259 7.91573 48.6777 7.91614 48.5295C7.91792 47.6789 7.90951 47.0079 7.41197 46.3542C7.37623 46.2999 7.34048 46.2457 7.30365 46.1898C6.69539 45.6137 5.70091 45.8333 5.02962 45.8333C5.02962 48.5146 5.02962 51.1958 5.02962 53.9583C4.21433 53.9583 3.39903 53.9583 2.55903 53.9583C2.54708 52.7024 2.53736 51.4466 2.5316 50.1906C2.52884 49.6075 2.52509 49.0244 2.5191 48.4412C2.51335 47.8786 2.51018 47.316 2.5088 46.7534C2.50782 46.5386 2.50591 46.3238 2.50306 46.109C2.49922 45.8084 2.49869 45.508 2.49893 45.2074C2.49703 45.1183 2.49513 45.0292 2.49316 44.9375C2.49528 44.6993 2.50247 44.4995 2.55903 44.2708C2.90319 43.9157 3.27688 43.7503 3.70609 43.5742C3.80982 43.5308 3.91356 43.4875 4.02043 43.4428C5.34391 42.9652 7.15085 43.0342 8.44047 43.6544Z" fill="white"/>
<path d="M53.6693 43.1771C53.8305 43.1774 53.8305 43.1774 53.9949 43.1777C55.1967 43.202 56.307 43.51 57.4414 43.9583C57.4434 45.2332 57.445 46.5081 57.4459 47.783C57.4464 48.3749 57.447 48.9668 57.448 49.5587C57.449 50.1294 57.4495 50.7001 57.4497 51.2708C57.4499 51.4891 57.4502 51.7073 57.4507 51.9256C57.4513 52.2302 57.4514 52.5348 57.4514 52.8393C57.4517 52.9305 57.452 53.0217 57.4523 53.1156C57.4514 53.7381 57.4514 53.7381 57.3531 53.8542C57.1971 53.8645 57.0407 53.8678 56.8844 53.868C56.7895 53.8681 56.6947 53.8683 56.5969 53.8684C56.4971 53.868 56.3972 53.8676 56.2943 53.8672C56.1944 53.8676 56.0946 53.868 55.9917 53.8684C55.8968 53.8683 55.802 53.8681 55.7042 53.868C55.6165 53.8679 55.5288 53.8678 55.4385 53.8676C55.2355 53.8542 55.2355 53.8542 55.1472 53.75C55.1436 53.507 55.1435 53.2638 55.1472 53.0208C55.0599 53.0208 54.9725 53.0208 54.8825 53.0208C54.86 53.085 54.8375 53.1492 54.8143 53.2153C54.5866 53.6827 54.0924 53.8166 53.6803 53.9844C52.5239 54.2783 51.4115 54.0167 50.3991 53.3203C49.586 52.665 48.9601 51.6458 48.7285 50.5107C48.464 48.7043 48.6101 47.0986 49.412 45.5208C50.406 43.861 52.0016 43.167 53.6693 43.1771Z" fill="white"/>
<path d="M38.7185 44.0169C39.6623 44.8923 40.1561 46.014 40.3233 47.3958C40.3233 48.1177 40.3233 48.8396 40.3233 49.5833C38.4016 49.5833 36.4798 49.5833 34.4998 49.5833C34.6824 50.4458 34.8416 50.9634 35.4704 51.4583C35.9818 51.73 36.4976 51.7024 37.0476 51.6992C37.1455 51.699 37.2434 51.6988 37.3443 51.6986C38.1309 51.6873 38.8539 51.5727 39.6174 51.3542C39.7644 51.3187 39.9114 51.2837 40.0586 51.25C40.0705 51.5561 40.0793 51.8617 40.0862 52.168C40.0899 52.2548 40.0936 52.3416 40.0974 52.431C40.1015 52.6718 40.0983 52.8887 40.0586 53.125C39.7555 53.4634 39.3077 53.5711 38.9116 53.7109C38.8499 53.7335 38.7883 53.7561 38.7248 53.7793C37.2646 54.3062 35.6005 54.2292 34.2075 53.47C33.1185 52.7733 32.512 51.7939 32.1026 50.431C31.9703 49.8415 31.9784 49.2586 31.9851 48.6523C31.9837 48.5289 31.9824 48.4054 31.981 48.2782C31.986 46.9222 32.3212 45.6507 33.1108 44.6411C34.612 42.9578 36.9702 42.6418 38.7185 44.0169Z" fill="white"/>
<path d="M44.6801 43.1836C44.8165 43.1841 44.8165 43.1841 44.9557 43.1846C45.857 43.2036 46.6824 43.4024 47.5588 43.6459C47.5588 44.4021 47.5588 45.1584 47.5588 45.9375C47.2881 45.8843 47.0172 45.8299 46.7502 45.7548C46.0883 45.5722 45.4487 45.4829 44.7684 45.4688C44.6931 45.4656 44.6179 45.4624 44.5403 45.4592C44.1502 45.4589 43.9894 45.4775 43.6696 45.765C43.4761 46.027 43.4761 46.027 43.489 46.3542C43.6154 46.7522 43.7509 46.9161 44.0294 47.1875C44.2897 47.3115 44.5555 47.3828 44.829 47.4544C44.9797 47.498 45.1303 47.5418 45.2809 47.5859C45.3902 47.6172 45.3902 47.6172 45.5018 47.6491C46.4063 47.9117 47.2196 48.2539 47.7794 49.1862C48.1302 49.9627 48.1069 51.0197 47.9118 51.8555C47.6304 52.6852 47.0795 53.2911 46.3945 53.6463C44.8382 54.2988 43.3518 54.2106 41.8235 53.5417C41.7071 53.4729 41.5906 53.4042 41.4706 53.3334C41.4706 52.6802 41.4706 52.0271 41.4706 51.3542C41.6125 51.3843 41.7545 51.4143 41.9007 51.4453C42.0347 51.4735 42.0347 51.4735 42.1713 51.5023C42.3344 51.5387 42.4971 51.578 42.6587 51.6227C43.5094 51.8567 44.5225 51.9418 45.3529 51.5625C45.632 51.3375 45.6921 51.2309 45.7555 50.8399C45.6888 50.4112 45.5431 50.2801 45.2647 50C45.0061 49.8713 45.0061 49.8713 44.7187 49.7982C44.6107 49.7645 44.5026 49.7308 44.3913 49.6961C44.3332 49.6782 44.2751 49.6602 44.2153 49.6418C42.0795 48.9702 42.0795 48.9702 41.5219 47.8805C41.1929 47.0439 41.1969 46.2151 41.432 45.3451C41.7015 44.5579 42.1558 43.9406 42.7941 43.5417C43.4239 43.2563 44.0092 43.1758 44.6801 43.1836Z" fill="white"/>
<path d="M24.8821 45.625C25.1947 45.6189 25.5073 45.6152 25.82 45.612C25.9082 45.6102 25.9964 45.6085 26.0872 45.6067C26.8426 45.6008 27.3105 45.7413 27.8849 46.3293C28.4688 47.0257 28.5985 47.7947 28.6266 48.75C28.609 49.6614 28.3704 50.4337 27.8821 51.1458C27.2164 51.7517 26.5845 51.7292 25.7645 51.6667C25.085 51.4895 25.085 51.4895 24.8821 51.25C24.8739 51.0742 24.8718 50.8979 24.8721 50.7218C24.8721 50.6092 24.8721 50.4966 24.8721 50.3806C24.8726 50.2581 24.873 50.1356 24.8735 50.0094C24.8736 49.8846 24.8738 49.7599 24.8739 49.6315C24.8744 49.2313 24.8755 48.8311 24.8766 48.431C24.8771 48.1605 24.8775 47.8899 24.8778 47.6194C24.8788 46.9546 24.8803 46.2898 24.8821 45.625Z" fill="#FB0101"/>
<path d="M54.5915 45.7311C54.6982 45.7597 54.6982 45.7597 54.8071 45.7888C54.8881 45.8109 54.8881 45.8109 54.9708 45.8333C54.9865 46.5191 54.9973 47.2048 55.0047 47.8907C55.0078 48.1239 55.012 48.3571 55.0174 48.5903C55.0249 48.9259 55.0284 49.2614 55.0311 49.5972C55.0343 49.701 55.0375 49.8049 55.0408 49.9119C55.0411 50.6212 55.0411 50.6212 54.8391 50.9313C54.2646 51.5255 53.6949 51.7279 52.9362 51.7033C52.4502 51.6347 52.12 51.4212 51.7723 51.0221C51.2591 50.0484 51.0964 49.1648 51.1767 48.0208C51.3651 47.1344 51.7675 46.4506 52.412 45.9375C53.1213 45.5261 53.8276 45.5253 54.5915 45.7311Z" fill="#FB0101"/>
<path d="M16.7646 46.9792C18.337 46.9792 19.9094 46.9792 21.5294 46.9792C21.5294 47.8729 21.5294 48.7667 21.5294 49.6875C19.957 49.6875 18.3846 49.6875 16.7646 49.6875C16.7646 48.7937 16.7646 47.9 16.7646 46.9792Z" fill="white"/>
<path d="M24.7057 15.2083C24.7639 15.2083 24.8222 15.2083 24.8822 15.2083C24.9811 15.3695 24.9811 15.3695 25.0972 15.599C25.7203 16.7345 26.4959 17.6343 27.5292 18.2292C27.5292 18.2979 27.5292 18.3667 27.5292 18.4375C27.3907 18.5581 27.3907 18.5581 27.1966 18.6902C27.1259 18.7386 27.0552 18.787 26.9823 18.8369C26.9062 18.8877 26.8301 18.9385 26.7516 18.9909C26.675 19.0427 26.5983 19.0944 26.5192 19.1478C25.9859 19.504 25.4484 19.8267 24.8822 20.1042C24.8218 20.1371 24.7614 20.17 24.6991 20.2039C24.4072 20.3621 24.2412 20.4167 23.9116 20.4167C23.9028 19.8792 23.8964 19.3419 23.8922 18.8043C23.8904 18.6217 23.888 18.439 23.8849 18.2563C23.8806 17.9931 23.8787 17.7299 23.8771 17.4666C23.8753 17.3856 23.8735 17.3045 23.8716 17.2209C23.8714 16.6725 23.9665 16.3789 24.2645 15.9375C24.3057 15.8647 24.3469 15.792 24.3893 15.717C24.4904 15.5437 24.5979 15.3758 24.7057 15.2083Z" fill="#535F21"/>
<path d="M22.0589 18.3333C22.088 18.3333 22.1171 18.3333 22.1471 18.3333C22.1471 19.399 22.1471 20.4646 22.1471 21.5625C21.3566 21.5625 21.3566 21.5625 21.0441 21.4779C20.7658 21.4059 20.4877 21.3378 20.2073 21.2781C20.1452 21.2648 20.0832 21.2516 20.0193 21.2379C19.8965 21.2119 19.7737 21.1861 19.6508 21.1606C19.2932 21.0836 18.9615 20.9703 18.6177 20.8333C18.2992 20.7504 17.9798 20.6763 17.6598 20.6022C17.3824 20.5208 17.3824 20.5208 17.1177 20.3125C17.2116 20.3086 17.3056 20.3047 17.4024 20.3007C18.9565 20.2239 20.3306 19.8776 21.6042 18.7752C21.8824 18.5417 21.8824 18.5417 22.0589 18.5417C22.0589 18.4729 22.0589 18.4042 22.0589 18.3333Z" fill="#595C20"/>
<path d="M28.3237 30.4167C29.0808 30.4167 29.8378 30.4167 30.6178 30.4167C30.6197 30.8442 30.6215 31.2717 30.6234 31.7122C30.6242 31.8472 30.625 31.9822 30.6258 32.1213C30.626 32.2268 30.6262 32.3323 30.6265 32.441C30.6272 32.6038 30.6272 32.6038 30.6279 32.7699C30.6178 33.0208 30.6178 33.0208 30.5296 33.125C30.3661 33.1341 30.2022 33.1361 30.0385 33.1352C29.9491 33.1349 29.8598 33.1346 29.7677 33.1344C29.6533 33.1334 29.539 33.1325 29.4212 33.1315C29.059 33.1294 28.6969 33.1272 28.3237 33.125C28.3237 32.2312 28.3237 31.3375 28.3237 30.4167Z" fill="#E60000"/>
<path d="M36.2482 45.599C36.3543 45.5963 36.4604 45.5936 36.5697 45.5908C37.1382 45.653 37.483 45.9626 37.8529 46.4583C38.1028 46.8652 38.1176 46.9677 38.1176 47.5C36.9238 47.5 35.73 47.5 34.5 47.5C34.5924 46.7365 34.6923 46.411 35.1673 45.9049C35.5264 45.6115 35.8205 45.6054 36.2482 45.599Z" fill="#FB0101"/>
<path d="M23.9116 5.9375C27.5513 5.9375 31.191 5.9375 34.941 5.9375C34.941 7.3125 34.941 8.6875 34.941 10.1042C34.8828 10.0698 34.8246 10.0354 34.7646 10C34.7646 8.72813 34.7646 7.45625 34.7646 6.14583C31.2122 6.14583 27.6599 6.14583 23.9999 6.14583C24.029 9.48021 24.0581 12.8146 24.0881 16.25C24.0007 16.3016 24.0007 16.3016 23.9116 16.3542C23.9116 12.9167 23.9116 9.47917 23.9116 5.9375Z" fill="#FED1CF"/>
<path d="M25.5002 31.0417C25.9079 31.0417 26.3155 31.0417 26.7355 31.0417C26.7441 32.1708 26.7441 32.1708 26.7355 32.5C26.6473 32.6042 26.6473 32.6042 26.4102 32.618C26.3137 32.6177 26.2173 32.6175 26.1179 32.6172C26.0214 32.6174 25.925 32.6177 25.8256 32.618C25.5885 32.6042 25.5885 32.6042 25.5002 32.5C25.4875 32.0137 25.4965 31.5283 25.5002 31.0417Z" fill="#E60000"/>
<path d="M32.5538 31.0315C32.712 31.0333 32.712 31.0333 32.8733 31.0352C33.0318 31.0366 33.0318 31.0366 33.1935 31.038C33.2753 31.0392 33.3571 31.0404 33.4413 31.0417C33.4437 31.2825 33.4454 31.5234 33.4469 31.7643C33.4479 31.8985 33.4489 32.0326 33.45 32.1708C33.4413 32.5 33.4413 32.5 33.3531 32.6042C33.1768 32.6145 33.0002 32.6177 32.8237 32.6172C32.7272 32.6175 32.6308 32.6177 32.5314 32.618C32.2943 32.6042 32.2943 32.6042 32.2061 32.5C32.1973 32.2745 32.1946 32.0487 32.195 31.8229C32.1948 31.6994 32.1946 31.5758 32.1943 31.4486C32.21 31.045 32.21 31.045 32.5538 31.0315Z" fill="#E60000"/>
<path d="M38.647 13.4375C39.145 13.4913 39.5172 13.6525 39.9619 13.9164C40.0256 13.9533 40.0894 13.9901 40.1551 14.0281C40.3568 14.1449 40.558 14.2632 40.7591 14.3815C40.8965 14.4614 41.034 14.5412 41.1715 14.621C41.5069 14.8157 41.8418 15.0117 42.1764 15.2083C42.0151 15.6121 41.7982 15.9325 41.5532 16.2695C41.5103 16.3288 41.4673 16.3881 41.4231 16.4493C40.6135 17.5566 40.6135 17.5566 40.2352 17.9167C40.1479 17.9167 40.0605 17.9167 39.9705 17.9167C40.0805 17.5269 40.2439 17.3568 40.4999 17.0833C40.6309 17.0318 40.6309 17.0318 40.7646 16.9792C40.7937 16.876 40.8229 16.7729 40.8529 16.6667C40.9111 16.6667 40.9693 16.6667 41.0293 16.6667C41.0493 16.6087 41.0694 16.5507 41.09 16.4909C41.2058 16.25 41.2058 16.25 41.4319 15.9896C41.635 15.7437 41.704 15.6442 41.7352 15.3125C41.5605 15.2437 41.3858 15.175 41.2058 15.1042C41.2058 15.0354 41.2058 14.9667 41.2058 14.8958C41.113 14.8872 41.0202 14.8786 40.9245 14.8698C40.5537 14.7837 40.4322 14.6528 40.147 14.375C39.9424 14.2833 39.7431 14.2261 39.5293 14.1667C39.5293 14.0979 39.5293 14.0292 39.5293 13.9583C39.4493 13.9497 39.3692 13.9411 39.2867 13.9323C38.9646 13.8445 38.8558 13.7314 38.647 13.4375Z" fill="#5B9229"/>
<path d="M18 20.625C18.3853 20.6081 18.7174 20.6201 19.0919 20.7292C19.6857 20.8752 20.2747 20.8559 20.8787 20.8463C20.9925 20.8454 21.1064 20.8445 21.2237 20.8435C21.5021 20.8411 21.7804 20.8377 22.0588 20.8333C22.0588 21.0739 22.0588 21.3146 22.0588 21.5625C21.6266 21.5847 21.2474 21.5284 20.8253 21.4205C20.6194 21.3692 20.4139 21.3221 20.2069 21.2781C20.1449 21.2648 20.0829 21.2516 20.0191 21.2379C19.8964 21.2118 19.7736 21.186 19.6508 21.1605C19.2935 21.0836 18.9607 20.9722 18.6176 20.8333C18.4123 20.7942 18.2065 20.7584 18 20.7292C18 20.6948 18 20.6604 18 20.625Z" fill="#598426"/>
<path d="M24.7057 15.2083C24.7639 15.2083 24.8222 15.2083 24.8822 15.2083C24.9997 15.3914 24.9997 15.3914 25.1303 15.638C25.2961 15.9452 25.4619 16.223 25.6708 16.4909C25.7608 16.6295 25.7608 16.6295 25.8527 16.7708C25.82 16.9967 25.82 16.9967 25.7645 17.1875C25.6758 17.0709 25.5876 16.9536 25.4998 16.8359C25.4507 16.7707 25.4015 16.7054 25.3509 16.6382C25.2351 16.4583 25.2351 16.4583 25.2351 16.25C25.1769 16.25 25.1186 16.25 25.0586 16.25C25.0295 16.1125 25.0004 15.975 24.9704 15.8333C24.5828 15.9138 24.4226 16.0986 24.1986 16.4714C23.9508 17.1425 24.0096 17.925 24.0108 18.6458C24.0092 18.8177 24.0074 18.9895 24.0053 19.1614C24.0008 19.5799 23.9994 19.9982 23.9998 20.4167C23.9707 20.4167 23.9416 20.4167 23.9116 20.4167C23.9028 19.8792 23.8964 19.3419 23.8922 18.8043C23.8904 18.6217 23.888 18.439 23.8849 18.2563C23.8806 17.9931 23.8787 17.7299 23.8771 17.4666C23.8753 17.3856 23.8735 17.3045 23.8716 17.2209C23.8714 16.6725 23.9665 16.3789 24.2645 15.9375C24.3057 15.8647 24.3469 15.792 24.3893 15.717C24.4904 15.5437 24.5979 15.3758 24.7057 15.2083Z" fill="#6C4D1C"/>
<path d="M33.7939 10.7292C34.3267 10.7797 34.724 10.9173 35.2002 11.1979C35.2636 11.2342 35.327 11.2704 35.3923 11.3078C36.104 11.7187 36.803 12.1594 37.4998 12.6042C37.4998 12.6729 37.4998 12.7417 37.4998 12.8125C37.0367 12.6714 36.623 12.4782 36.1928 12.2331C36.134 12.2001 36.0751 12.1671 36.0145 12.1332C35.8028 12.0144 35.5918 11.8946 35.3822 11.7708C35.3822 11.7021 35.3822 11.6333 35.3822 11.5625C35.2875 11.5496 35.1929 11.5367 35.0954 11.5234C34.8194 11.4691 34.6468 11.4166 34.4116 11.25C34.4116 11.1813 34.4116 11.1125 34.4116 11.0417C34.3588 11.0288 34.306 11.0159 34.2517 11.0026C34.0587 10.9375 34.0587 10.9375 33.7939 10.7292Z" fill="#5E952E"/>
<path d="M26.7355 17.9167C27.0306 17.9747 27.2679 18.0575 27.5296 18.2292C27.5296 18.2979 27.5296 18.3667 27.5296 18.4375C27.3911 18.5581 27.3911 18.5581 27.197 18.6902C27.1263 18.7386 27.0556 18.787 26.9827 18.8369C26.9066 18.8877 26.8305 18.9385 26.7521 18.9909C26.6755 19.0425 26.5989 19.0941 26.5201 19.1473C25.1457 20.0644 25.1457 20.0644 24.4414 20.2083C24.5296 19.8958 24.5296 19.8958 24.6908 19.7838C24.7937 19.7339 24.7937 19.7339 24.8988 19.683C24.9733 19.6464 25.0479 19.6098 25.1247 19.5721C25.2031 19.535 25.2816 19.4979 25.3624 19.4596C25.4404 19.4213 25.5185 19.383 25.599 19.3435C26.1787 19.0625 26.1787 19.0625 26.3826 19.0625C26.3899 19.0045 26.3971 18.9465 26.4046 18.8867C26.4908 18.5732 26.643 18.3727 26.8238 18.125C26.7946 18.0562 26.7655 17.9875 26.7355 17.9167Z" fill="#496417"/>
<path d="M2.4707 43.9583C2.61629 43.9583 2.76188 43.9583 2.91188 43.9583C2.86893 44.0015 2.82598 44.0447 2.78173 44.0893C2.55155 44.3999 2.60847 44.8015 2.60902 45.1956C2.60812 45.2901 2.60722 45.3847 2.6063 45.4821C2.60363 45.7949 2.60282 46.1077 2.60202 46.4205C2.60054 46.6373 2.59893 46.854 2.59722 47.0708C2.59302 47.6415 2.5904 48.2123 2.5881 48.7831C2.58547 49.3654 2.58136 49.9477 2.57738 50.53C2.56978 51.6728 2.56384 52.8155 2.55894 53.9583C2.52982 53.9583 2.5007 53.9583 2.4707 53.9583C2.4707 50.6583 2.4707 47.3583 2.4707 43.9583Z" fill="#FEEBE9"/>
<path d="M25.5002 31.0417C25.9079 31.0417 26.3155 31.0417 26.7355 31.0417C26.7441 32.1708 26.7441 32.1708 26.7355 32.5C26.6473 32.6042 26.6473 32.6042 26.4102 32.618C26.3137 32.6177 26.2173 32.6175 26.1179 32.6172C26.0214 32.6174 25.925 32.6177 25.8256 32.618C25.5885 32.6042 25.5885 32.6042 25.5002 32.5C25.4875 32.0137 25.4965 31.5283 25.5002 31.0417ZM25.5885 31.1458C25.5885 31.5583 25.5885 31.9708 25.5885 32.3958C25.9088 32.3958 26.2291 32.3958 26.5591 32.3958C26.6704 32.1328 26.656 31.9467 26.6528 31.6536C26.651 31.4861 26.6492 31.3185 26.6473 31.1458C26.2979 31.1458 25.9485 31.1458 25.5885 31.1458Z" fill="#FED5D4"/>
<path d="M33.0885 21.4583C33.0002 21.6667 33.0002 21.6667 32.8058 21.7811C32.544 21.8807 32.3272 21.9077 32.0527 21.9181C31.9116 21.9242 31.9116 21.9242 31.7675 21.9303C31.6216 21.9352 31.6216 21.9352 31.4727 21.9401C31.3241 21.9461 31.3241 21.9461 31.1726 21.9523C30.9289 21.9621 30.6852 21.971 30.4414 21.9792C30.7016 21.808 30.9242 21.7305 31.2186 21.6821C31.2991 21.6687 31.3796 21.6553 31.4625 21.6414C31.5459 21.6283 31.6293 21.6151 31.7153 21.6015C31.7984 21.5876 31.8815 21.5736 31.9671 21.5592C32.3448 21.4976 32.7066 21.4508 33.0885 21.4583Z" fill="#599622"/>
<path d="M40.5884 14.375C40.9731 14.5155 41.3219 14.6926 41.6803 14.9089C41.7738 14.965 41.8673 15.0211 41.9636 15.0789C42.0339 15.1216 42.1042 15.1643 42.1766 15.2083C42.0557 15.5376 42.0011 15.6242 41.7354 15.8333C41.7354 15.6615 41.7354 15.4896 41.7354 15.3125C41.5607 15.2438 41.386 15.175 41.206 15.1042C41.206 15.0354 41.206 14.9667 41.206 14.8958C41.1478 14.8958 41.0896 14.8958 41.0296 14.8958C41.0296 14.8271 41.0296 14.7583 41.0296 14.6875C40.884 14.6531 40.7384 14.6188 40.5884 14.5833C40.5884 14.5146 40.5884 14.4458 40.5884 14.375Z" fill="#639632"/>
<path d="M26.7353 17.9167C27.0303 17.9747 27.2676 18.0575 27.5294 18.2292C27.5294 18.2979 27.5294 18.3667 27.5294 18.4375C27.1725 18.7535 26.8101 18.8471 26.3823 18.9583C26.5033 18.6506 26.646 18.3916 26.8235 18.125C26.7944 18.0562 26.7653 17.9875 26.7353 17.9167Z" fill="#4F5E1D"/>
<path d="M18 20.625C18.5378 20.5884 18.9777 20.6954 19.4962 20.8622C19.8199 20.953 20.1337 20.9839 20.4654 20.9993C20.6885 21.0513 20.7686 21.1511 20.9118 21.3542C20.2082 21.3237 19.5823 21.1813 18.911 20.931C18.6078 20.83 18.3124 20.774 18 20.7292C18 20.6948 18 20.6604 18 20.625Z" fill="#829F5A"/>
<path d="M31.6763 13.0208C31.7913 13.428 31.7288 13.5655 31.5881 13.9583C31.4606 14.2223 31.3357 14.4794 31.1469 14.6875C31.0304 14.6875 30.9139 14.6875 30.7939 14.6875C30.943 14.3058 31.1357 13.9679 31.3344 13.6198C31.3983 13.5075 31.4622 13.3953 31.5281 13.2796C31.6015 13.1515 31.6015 13.1515 31.6763 13.0208Z" fill="#639635"/>
<path d="M36.5293 20.3125C36.4411 20.625 36.4411 20.625 36.2356 20.7467C36.1506 20.7817 36.0655 20.8168 35.9778 20.8529C35.8516 20.9066 35.8516 20.9066 35.7228 20.9615C35.4783 21.0392 35.2808 21.0574 35.0293 21.0417C35.0293 20.9729 35.0293 20.9042 35.0293 20.8333C35.2295 20.7459 35.4299 20.6592 35.6304 20.5729C35.6871 20.5481 35.7438 20.5232 35.8022 20.4976C36.0572 20.3885 36.2558 20.3125 36.5293 20.3125Z" fill="#5A9529"/>
<path d="M32.2939 31.0417C32.6725 31.0417 33.051 31.0417 33.441 31.0417C33.4434 31.2825 33.4451 31.5234 33.4465 31.7643C33.4475 31.8985 33.4486 32.0326 33.4496 32.1708C33.441 32.5 33.441 32.5 33.3528 32.6042C33.1746 32.6117 32.9962 32.6129 32.8178 32.6107C32.7204 32.6097 32.6229 32.6088 32.5225 32.6078C32.4093 32.606 32.4093 32.606 32.2939 32.6042C32.2939 32.5698 32.2939 32.5354 32.2939 32.5C32.7744 32.3969 32.7744 32.3969 33.2645 32.2917C33.2937 31.9135 33.3228 31.5354 33.3528 31.1458C33.0034 31.1458 32.6539 31.1458 32.2939 31.1458C32.2939 31.1114 32.2939 31.0771 32.2939 31.0417Z" fill="#FED1CD"/>
<path d="M24.7059 21.7708C25.1136 21.7708 25.5212 21.7708 25.9412 21.7708C25.9412 21.8396 25.9412 21.9083 25.9412 21.9792C26.0577 22.0136 26.1741 22.0479 26.2941 22.0833C26.114 22.0862 25.9339 22.0882 25.7537 22.0899C25.6534 22.0911 25.5531 22.0923 25.4497 22.0935C25.1636 22.0839 24.8983 22.0431 24.6177 21.9792C24.6468 21.9104 24.6759 21.8417 24.7059 21.7708Z" fill="#5A9429"/>
<path d="M30.7059 14.6875C30.7351 14.825 30.7642 14.9625 30.7942 15.1042C30.7068 15.1042 30.6195 15.1042 30.5295 15.1042C30.5004 15.276 30.4712 15.4479 30.4412 15.625C30.383 15.625 30.3248 15.625 30.2648 15.625C30.2429 15.6916 30.2211 15.7582 30.1986 15.8268C30.0883 16.0417 30.0883 16.0417 29.9008 16.1198C29.8189 16.1327 29.8189 16.1327 29.7354 16.1458C29.9174 15.7642 30.1199 15.4473 30.3695 15.1237C30.4327 15.0414 30.4958 14.9591 30.5608 14.8743C30.6087 14.8126 30.6566 14.751 30.7059 14.6875Z" fill="#6D9B40"/>
<path d="M19.2353 20.3125C19.2062 20.45 19.1771 20.5875 19.1471 20.7292C18.7685 20.6948 18.39 20.6604 18 20.625C18 20.5562 18 20.4875 18 20.4167C18.4168 20.3488 18.8135 20.3 19.2353 20.3125Z" fill="#445410"/>
<path d="M33.0001 10.2083C33.1457 10.2083 33.2913 10.2083 33.4413 10.2083C33.4413 10.2771 33.4413 10.3458 33.4413 10.4167C33.3539 10.4167 33.2666 10.4167 33.1766 10.4167C33.1475 10.5198 33.1184 10.6229 33.0884 10.7292C33.0147 10.9103 32.9391 11.0903 32.8622 11.2695C32.8221 11.3634 32.7819 11.4572 32.7406 11.5539C32.7098 11.6255 32.6789 11.6971 32.6472 11.7708C32.5889 11.7365 32.5307 11.7021 32.4707 11.6667C32.6326 11.1729 32.8165 10.6912 33.0001 10.2083Z" fill="#68963F"/>
<path d="M34.9411 21.0417C34.7445 21.3087 34.6169 21.3966 34.3235 21.4583C34.1397 21.4653 33.9558 21.4672 33.772 21.4648C33.6769 21.4639 33.5818 21.463 33.4839 21.462C33.4115 21.4608 33.3392 21.4596 33.2646 21.4583C33.2646 21.4239 33.2646 21.3896 33.2646 21.3542C33.4612 21.3014 33.6579 21.2495 33.8547 21.1979C34.019 21.1544 34.019 21.1544 34.1866 21.11C34.4491 21.0527 34.6759 21.0273 34.9411 21.0417Z" fill="#5D932A"/>
<path d="M22.0588 20.8333C22.0588 21.074 22.0588 21.3146 22.0588 21.5625C21.855 21.5625 21.6512 21.5625 21.4412 21.5625C21.4412 21.5281 21.4412 21.4938 21.4412 21.4583C21.6159 21.4583 21.7906 21.4583 21.9706 21.4583C21.9415 21.3896 21.9124 21.3208 21.8824 21.25C21.6745 21.2013 21.6745 21.2013 21.4357 21.1849C21.3546 21.1771 21.2735 21.1693 21.1899 21.1613C21.1272 21.1562 21.0646 21.1511 21 21.1458C21 21.0771 21 21.0083 21 20.9375C21.1599 20.9201 21.3198 20.9027 21.4798 20.8854C21.5688 20.8758 21.6579 20.8661 21.7497 20.8561C21.9706 20.8333 21.9706 20.8333 22.0588 20.8333Z" fill="#6EA23A"/>
<path d="M30.2648 21.7708C30.5112 21.7455 30.7197 21.7467 30.959 21.8241C31.1812 21.8842 31.3828 21.885 31.6104 21.8815C31.6891 21.8806 31.7679 21.8796 31.8489 21.8787C31.9085 21.8775 31.9681 21.8762 32.0296 21.875C32.0296 21.9094 32.0296 21.9438 32.0296 21.9792C31.601 22.0805 31.1957 22.0959 30.7612 22.0898C30.6962 22.0894 30.6313 22.0889 30.5644 22.0884C30.4057 22.0872 30.247 22.0853 30.0884 22.0833C30.1466 21.9802 30.2048 21.8771 30.2648 21.7708Z" fill="#6A9D3C"/>
<path d="M37.853 19.5833C37.7647 19.8958 37.7647 19.8958 37.6172 20.0175C37.0083 20.3702 37.0083 20.3702 36.6177 20.3125C36.6177 20.2438 36.6177 20.175 36.6177 20.1042C36.7903 20.0169 36.9631 19.9302 37.1361 19.8438C37.2804 19.7713 37.2804 19.7713 37.4276 19.6973C37.6765 19.5833 37.6765 19.5833 37.853 19.5833Z" fill="#5B9126"/>
<path d="M20.9116 21.1458C21.2319 21.1458 21.5522 21.1458 21.8822 21.1458C21.9113 21.249 21.9404 21.3521 21.9704 21.4583C21.2141 21.4732 21.2141 21.4732 20.9116 21.3542C20.9116 21.2854 20.9116 21.2167 20.9116 21.1458Z" fill="#589A22"/>
<path d="M18.9706 20.3125C18.7279 20.408 18.586 20.428 18.3364 20.4232C18.1699 20.42 18.1699 20.42 18 20.4167C18 20.4854 18 20.5542 18 20.625C17.7089 20.5563 17.4177 20.4875 17.1177 20.4167C17.1177 20.3823 17.1177 20.3479 17.1177 20.3125C17.3603 20.2922 17.6029 20.2728 17.8456 20.2539C17.9142 20.2481 17.9828 20.2422 18.0535 20.2362C18.12 20.2312 18.1865 20.2262 18.2551 20.221C18.3161 20.2161 18.3771 20.2111 18.4399 20.2061C18.6297 20.2085 18.7889 20.2501 18.9706 20.3125Z" fill="#79815B"/>
<path d="M28.9247 17.1549C28.9884 17.1657 29.0521 17.1764 29.1177 17.1875C28.7979 17.7995 28.7979 17.7995 28.5001 17.9167C28.4127 17.8479 28.3254 17.7792 28.2354 17.7083C28.6154 17.1955 28.6154 17.1955 28.9247 17.1549Z" fill="#689937"/>
<path d="M24.6176 15.625C24.6176 16.0006 24.5455 16.0847 24.3529 16.3737C24.3037 16.4482 24.2546 16.5227 24.204 16.5995C24.1658 16.6561 24.1275 16.7126 24.0882 16.7708C23.9999 16.4583 23.9999 16.4583 24.1047 16.1979C24.2595 15.9459 24.3986 15.7944 24.6176 15.625Z" fill="#454D1B"/>
<path d="M28.2352 18.0208C28.2352 18.1927 28.2352 18.3646 28.2352 18.5417C28.2061 18.4729 28.1769 18.4042 28.1469 18.3333C28.0887 18.3333 28.0305 18.3333 27.9705 18.3333C27.9414 18.4021 27.9122 18.4708 27.8822 18.5417C27.7658 18.5073 27.6493 18.4729 27.5293 18.4375C27.5293 18.3687 27.5293 18.3 27.5293 18.2292C27.9166 17.8955 27.9166 17.8955 28.2352 18.0208Z" fill="#659836"/>
<path d="M21.9704 18.75C21.9704 18.8531 21.9704 18.9562 21.9704 19.0625C21.5773 19.2172 21.5773 19.2172 21.1763 19.375C21.2645 19.0625 21.2645 19.0625 21.4741 18.8867C21.7057 18.75 21.7057 18.75 21.9704 18.75Z" fill="#424E1F"/>
<path d="M33.0881 21.3542C33.3793 21.3885 33.6705 21.4229 33.9705 21.4583C33.9705 21.4927 33.9705 21.5271 33.9705 21.5625C33.8328 21.5979 33.6949 21.6324 33.5569 21.6667C33.4417 21.6957 33.4417 21.6957 33.3242 21.7253C33.0937 21.7698 32.8801 21.7788 32.647 21.7708C32.7034 21.7407 32.7598 21.7107 32.8179 21.6797C33.0133 21.5804 33.0133 21.5804 33.0881 21.3542Z" fill="#6B9838"/>
<path d="M33.1767 10.4167C33.264 10.4167 33.3514 10.4167 33.4414 10.4167C33.4414 10.5542 33.4414 10.6917 33.4414 10.8333C33.2318 11.0026 33.2318 11.0026 33.0002 11.1458C32.942 11.2146 32.8837 11.2833 32.8237 11.3542C32.8807 10.991 32.9935 10.7162 33.1767 10.4167Z" fill="#5D9E23"/>
<path d="M19.7648 20.1042C19.7648 20.1729 19.7648 20.2417 19.7648 20.3125C19.5167 20.3776 19.5167 20.3776 19.2354 20.4167C19.1481 20.3479 19.0607 20.2792 18.9707 20.2083C19.273 20.0398 19.4455 19.9645 19.7648 20.1042Z" fill="#586031"/>
<path d="M26.7354 17.9167C27.0304 17.9747 27.2677 18.0575 27.5295 18.2292C27.5295 18.2979 27.5295 18.3667 27.5295 18.4375C27.1488 18.3876 26.9854 18.2556 26.7354 17.9167Z" fill="#3F4D1D"/>
<path d="M24.7061 15.2083C24.7643 15.2083 24.8226 15.2083 24.8826 15.2083C24.9408 15.3802 24.9991 15.5521 25.0591 15.7292C24.8991 15.7943 24.8991 15.7943 24.7061 15.8333C24.6188 15.7646 24.5314 15.6958 24.4414 15.625C24.5627 15.4167 24.5627 15.4167 24.7061 15.2083Z" fill="#55582E"/>
<path d="M34.4118 43.6458C34.3827 43.749 34.3536 43.8521 34.3236 43.9583C34.2362 43.9583 34.1489 43.9583 34.0589 43.9583C34.0297 44.0615 34.0006 44.1646 33.9706 44.2708C33.8541 44.2365 33.7377 44.2021 33.6177 44.1667C33.7166 44.0793 33.8159 43.9926 33.9155 43.9063C33.9707 43.8579 34.026 43.8096 34.083 43.7598C34.2353 43.6458 34.2353 43.6458 34.4118 43.6458Z" fill="white"/>
<path d="M32.0296 12.3958C32.1461 12.3958 32.2626 12.3958 32.3826 12.3958C32.3605 12.5911 32.3605 12.5911 32.2943 12.8125C32.1124 12.9427 32.1124 12.9427 31.9414 13.0208C31.9705 12.8146 31.9996 12.6083 32.0296 12.3958Z" fill="#5C9B28"/>
<path d="M11.647 45.625C12.2877 45.5609 12.2877 45.5609 12.6176 45.8854C12.6758 45.9713 12.734 46.0573 12.794 46.1458C12.7194 46.1157 12.6448 46.0857 12.5679 46.0547C12.2625 45.9367 11.9563 45.8314 11.647 45.7292C11.647 45.6948 11.647 45.6604 11.647 45.625Z" fill="white"/>
<path d="M19.2354 20.4167C19.381 20.451 19.5266 20.4854 19.6766 20.5208C19.6475 20.6239 19.6184 20.7271 19.5884 20.8333C19.3845 20.8333 19.1807 20.8333 18.9707 20.8333C19.0581 20.6958 19.1454 20.5583 19.2354 20.4167Z" fill="#4C6115"/>
<path d="M20.8236 19.6875C20.4832 19.9118 20.2456 20.0409 19.853 20C19.9413 19.7917 19.9413 19.7917 20.1894 19.668C20.4583 19.5871 20.571 19.5728 20.8236 19.6875Z" fill="#525A2B"/>
<path d="M23.206 3.75C23.2643 3.78438 23.3225 3.81875 23.3825 3.85417C23.3197 3.92184 23.3197 3.92184 23.2557 3.99089C23.0969 4.16907 23.0969 4.16907 23.0296 4.47917C22.8035 4.60286 22.8035 4.60286 22.5884 4.6875C22.7256 4.28991 22.9445 4.0425 23.206 3.75Z" fill="white"/>
<path d="M24.4411 3.33334C24.3316 3.40649 24.2211 3.47774 24.1103 3.54818C24.0181 3.608 24.0181 3.608 23.9241 3.66903C23.7034 3.76367 23.6 3.73785 23.3823 3.64584C23.4919 3.57268 23.6024 3.50143 23.7132 3.43099C23.8053 3.37117 23.8053 3.37117 23.8993 3.31014C24.1201 3.2155 24.2235 3.24132 24.4411 3.33334Z" fill="white"/>
<path d="M49.3237 51.875C49.4984 51.9438 49.6731 52.0125 49.8531 52.0833C49.8531 52.2896 49.8531 52.4958 49.8531 52.7083C49.423 52.2266 49.423 52.2266 49.3237 51.875Z" fill="white"/>
<path d="M32.0293 49.6875C32.1166 49.7219 32.204 49.7563 32.294 49.7917C32.294 50.101 32.294 50.4104 32.294 50.7292C32.1349 50.3535 32.0764 50.0954 32.0293 49.6875Z" fill="white"/>
<path d="M38.5587 18.8542C38.6751 18.8542 38.7916 18.8542 38.9116 18.8542C38.8534 18.9917 38.7951 19.1292 38.7351 19.2708C38.5895 19.2708 38.4439 19.2708 38.2939 19.2708C38.4042 19.0625 38.4042 19.0625 38.5587 18.8542Z" fill="#5E9627"/>
<path d="M39.8823 45.8333C40.1428 46.1408 40.1547 46.4537 40.2353 46.875C40.177 46.8406 40.1188 46.8063 40.0588 46.7708C40.0588 46.7021 40.0588 46.6333 40.0588 46.5625C40.0006 46.5625 39.9423 46.5625 39.8823 46.5625C39.8823 46.3219 39.8823 46.0813 39.8823 45.8333Z" fill="white"/>
<path d="M3.35286 43.75C3.41109 43.7844 3.46933 43.8188 3.52933 43.8542C3.28668 44.069 3.28668 44.069 2.99991 44.2708C2.80552 44.2314 2.80552 44.2314 2.64697 44.1667C2.76049 44.0941 2.87457 44.0227 2.98888 43.9518C3.05235 43.9119 3.11582 43.8721 3.18121 43.831C3.23785 43.8043 3.2945 43.7775 3.35286 43.75Z" fill="white"/>
<path d="M25.4116 16.25C25.6377 16.4844 25.6377 16.4844 25.8528 16.7708C25.8363 17.0117 25.8363 17.0117 25.7646 17.1875C25.5437 16.8814 25.4584 16.648 25.4116 16.25Z" fill="#4F5728"/>
<path d="M30.794 14.6875C30.8814 14.7219 30.9687 14.7563 31.0587 14.7917C30.8271 15.2995 30.8271 15.2995 30.5293 15.4167C30.5293 15.3135 30.5293 15.2104 30.5293 15.1042C30.6166 15.1042 30.704 15.1042 30.794 15.1042C30.794 14.9667 30.794 14.8292 30.794 14.6875Z" fill="#5D9C21"/>
<path d="M31.6767 13.0208C31.7874 13.4132 31.7094 13.5804 31.5884 13.9583C31.5593 13.8896 31.5302 13.8208 31.5002 13.75C31.442 13.7156 31.3837 13.6813 31.3237 13.6458C31.4402 13.4396 31.5567 13.2333 31.6767 13.0208Z" fill="#699C3F"/>
<path d="M39.2646 18.4375C39.3519 18.5063 39.4393 18.575 39.5293 18.6458C39.3254 18.7833 39.1216 18.9208 38.9116 19.0625C38.9392 18.8672 38.9392 18.8672 38.9999 18.6458C39.0872 18.5771 39.1746 18.5083 39.2646 18.4375Z" fill="#659837"/>
<path d="M29.1177 16.7708C29.2051 16.7708 29.2924 16.7708 29.3824 16.7708C29.3533 16.9083 29.3242 17.0458 29.2942 17.1875C29.1486 17.1875 29.003 17.1875 28.853 17.1875C28.9688 16.9792 28.9688 16.9792 29.1177 16.7708Z" fill="#5D972A"/>
<path d="M32.7351 11.4583C32.8013 11.6406 32.8013 11.6406 32.8234 11.875C32.6524 12.1094 32.6524 12.1094 32.4704 12.2917C32.4539 11.9922 32.4539 11.9922 32.4704 11.6667C32.5578 11.5979 32.6451 11.5292 32.7351 11.4583Z" fill="#5D9C26"/>
</svg>
